<mxfile host="app.diagrams.net" modified="2023-07-20T04:04:24.426Z" agent="Mozilla/5.0 (Macintosh; Intel Mac OS X 10_15_7) AppleWebKit/605.1.15 (KHTML, like Gecko) Version/15.6.1 Safari/605.1.15" version="21.6.3" etag="i62Nn6JM4rM2S3jn-zvR" type="github">
  <diagram name="Page-1" id="QgRqhqPq8edZnNzAdqNk">
    <mxGraphModel>
      <root>
        <mxCell id="0" />
        <mxCell id="1" parent="0" />
      </root>
    </mxGraphModel>
  </diagram>
</mxfile>
